<?xml version="1.0" encoding="UTF-8" standalone="no"?>
<svg
   width="1000"
   height="1000"
   viewBox="0 0 1000 1000"
   fill="none"
   version="1.1"
   id="svg2"
   sodipodi:docname="logo Human  RIghts.svg"
   inkscape:version="1.3.2 (091e20e, 2023-11-25, custom)"
   xmlns:inkscape="http://www.inkscape.org/namespaces/inkscape"
   xmlns:sodipodi="http://sodipodi.sourceforge.net/DTD/sodipodi-0.dtd"
   xmlns="http://www.w3.org/2000/svg"
   xmlns:svg="http://www.w3.org/2000/svg">
  <defs
     id="defs2" />
  <sodipodi:namedview
     id="namedview2"
     pagecolor="#ffffff"
     bordercolor="#999999"
     borderopacity="1"
     inkscape:showpageshadow="2"
     inkscape:pageopacity="0"
     inkscape:pagecheckerboard="0"
     inkscape:deskcolor="#d1d1d1"
     inkscape:zoom="0.813"
     inkscape:cx="500"
     inkscape:cy="500"
     inkscape:window-width="1920"
     inkscape:window-height="1009"
     inkscape:window-x="-8"
     inkscape:window-y="-8"
     inkscape:window-maximized="1"
     inkscape:current-layer="svg2" />
  <path
     d="m 208.28653,35.784683 c -2.75191,0.53892 -6.48115,4.31316 -6.48115,6.64968 0,0.98832 4.3499,11.50353 9.67715,23.18611 37.64386,82.678637 54.95784,123.570317 77.06405,182.074527 7.10358,18.78341 28.58913,82.4118 36.2242,107.39551 12.87315,42.15034 26.19038,93.37114 38.62119,148.28367 6.21367,27.13765 24.15005,109.55297 31.0753,142.53631 14.28931,67.84851 26.81104,104.33575 49.80718,145.04661 15.98347,28.40159 33.11212,50.68714 57.26566,74.49819 15.71423,15.45683 27.3478,25.2558 42.52352,35.5884 4.88666,3.3249 8.96733,6.3794 9.14392,6.7445 0.0926,0.2721 -6.47767,1.5273 -14.64949,2.7824 -12.68782,1.7976 -18.28605,2.154 -37.55469,2.154 -29.38114,0 -47.49236,-2.2382 -74.13556,-9.1618 -42.34521,-10.96984 -79.27923,-29.20731 -114.08375,-56.438 -13.05149,-10.24837 -39.86254,-37.38603 -50.07295,-50.77141 -33.55969,-43.86016 -53.89308,-93.19736 -60.55083,-147.21109 -5.9479,-48.79476 1.50884,-106.04907 19.79839,-151.16439 11.18774,-27.40799 27.96847,-55.62349 45.72478,-76.56964 2.57357,-3.05274 4.08416,-5.65784 3.72749,-6.20028 -0.35317,-0.62846 -0.26575,-0.80576 0.26749,-0.53366 0.53326,0.3546 3.196,-1.97666 6.03708,-5.03115 2.84109,-3.06328 6.74691,-7.27814 8.70157,-9.25478 l 3.46174,-3.69174 -4.08416,-13.83828 c -2.21865,-7.63801 -5.77132,-20.04033 -7.90081,-27.5888 l -3.90758,-13.75052 -10.56532,9.88674 c -17.84547,16.53643 -29.47554,29.56721 -45.54644,51.3156 -36.22244,48.79476 -57.44225,102.53641 -66.3204,168.05191 -1.8655,13.92958 -2.66275,51.1383 -1.33226,66.32127 7.63509,92.47586 47.67769,175.07024 114.17644,235.81791 81.41396,74.51051 201.00329,107.57631 305.77356,84.66411 12.15981,-2.6034 25.12388,-6.2951 39.85728,-11.3263 l 11.0129,-3.7742 7.63507,2.6033 c 23.88605,7.8224 46.52028,13.3029 69.42549,16.8051 11.99372,1.7993 17.2318,2.0714 39.96044,2.0714 31.60329,0 36.04585,-0.8058 43.85577,-7.645 2.1295,-1.9767 2.84108,-3.2318 2.57358,-4.7573 -0.26925,-1.2552 0.17483,-2.6051 0.98083,-3.2318 1.591,-1.35 1.77633,-0.7215 0.52626,1.7888 -0.52626,0.8988 -0.71159,1.7151 -0.44408,1.7151 1.50882,0 3.99848,-8.0944 3.99848,-12.9465 0,-9.3391 -3.28516,-16.2626 -10.47615,-21.8362 -6.57032,-5.0294 -10.74366,-5.7509 -26.8093,-4.6748 -30.72387,2.154 -68.10198,-2.9597 -101.21411,-13.7505 -31.69595,-10.33264 -61.17149,-25.88251 -87.45453,-46.01412 -34.36045,-26.33189 -65.43749,-64.52191 -84.34247,-103.43519 -12.34689,-25.52614 -19.98197,-48.0838 -29.39338,-86.72498 -10.65097,-44.3078 -10.29955,-42.60324 -18.55529,-82.67688 -10.38175,-50.68714 -32.22222,-144.15659 -42.16862,-181.09321 -9.32399,-34.32802 -23.8843,-82.94548 -34.53703,-115.38813 -6.74866,-20.22113 -21.75305,-61.65175 -25.92638,-71.35768 -1.50883,-3.41436 -2.57358,-6.37934 -2.30783,-6.56014 0.35491,-0.4494 17.40139,16.89629 33.47229,34.24023 12.78397,13.65923 43.59527,50.14647 56.64325,67.04276 l 10.82757,14.0191 5.59823,-1.52725 c 23.44197,-6.56015 68.45516,-9.88675 98.28212,-7.18861 34.53703,3.14404 70.13706,13.20983 100.77002,28.30855 68.62999,33.9699 122.96191,93.73803 149.06837,164.0126 7.80992,20.93561 14.11274,47.2675 17.58322,72.79364 1.76759,13.48018 1.50884,55.99039 -0.44408,71.44721 -5.33074,40.88816 -18.37873,81.42172 -35.96194,110.90117 -9.93941,16.80501 -23.88605,36.66452 -34.18562,48.61745 -12.24373,14.20167 -33.20478,34.14369 -47.04827,44.74666 -3.37956,2.61564 -5.59998,4.86438 -4.88666,5.04168 6.57032,2.05916 58.06117,10.42568 64.01083,10.42568 3.01766,0 15.09531,-12.59016 14.29981,-14.92316 -0.36191,-1.25516 -0.26925,-1.3482 0.34967,-0.4494 1.15741,1.70456 8.69982,-6.65143 8.3484,-9.25478 -0.0926,-1.34995 0,-1.52725 0.61893,-0.72149 0.98257,1.62028 9.41315,-8.1787 8.44106,-9.88324 -0.36192,-0.6267 -0.26751,-0.8988 0.0821,-0.4494 0.44583,0.35636 1.68541,-0.2721 2.84282,-1.3482 2.12776,-1.97664 2.84108,-4.04808 0.98084,-2.87544 -0.62068,0.3546 -0.71334,0.27034 -0.36192,-0.45115 0.36192,-0.54244 0.98083,-0.804 1.42666,-0.54244 1.33225,0.81453 11.89058,-14.37896 11.0024,-15.90622 -0.35142,-0.62846 -0.25874,-0.71096 0.36017,-0.35636 1.60149,0.98306 16.50973,-22.73495 15.62157,-24.98194 -0.25876,-0.7215 -0.0821,-1.52725 0.44408,-1.89414 0.62067,-0.35461 0.80599,0.0948 0.44408,1.08838 -1.23958,4.03581 2.57359,-2.52084 9.32923,-15.82196 17.39789,-34.60362 28.49296,-71.26815 34.44438,-114.22776 2.22216,-15.90622 2.22216,-68.02581 0,-84.74832 -3.99851,-30.09561 -12.07766,-61.91858 -22.45939,-88.51204 -11.45699,-29.30213 -27.96671,-58.68677 -47.67944,-85.11346 -31.9652,-42.684 -76.18113,-78.99217 -125.35891,-102.89802 -60.02457,-29.20734 -128.11607,-39.99113 -193.99939,-30.91364 -8.6054,1.16738 -10.29956,1.25866 -11.09506,0.17904 -1.95292,-2.69638 -22.63597,-26.78128 -31.07704,-36.21688 C 349.80717,151.71524 285.79458,88.357193 236.07482,47.916663 221.60367,36.142803 216.89884,34.076623 208.28644,35.784683 Z M 432.37338,593.424 c -0.25876,0.72149 -0.52625,0.4494 -0.52625,-0.54244 -0.0926,-0.98306 0.17483,-1.52725 0.44408,-1.16211 0.25876,0.26156 0.35142,1.07785 0.0823,1.70455 z m 405.74808,109.63723 c -0.26925,0.72149 -0.53849,0.4494 -0.53849,-0.53366 -0.0821,-0.99359 0.17658,-1.52725 0.44583,-1.17089 0.26751,0.2721 0.36017,1.07785 0.0926,1.70455 z m -24.59936,66.32126 c 0,0.4494 -0.35142,0.90056 -0.88818,0.90056 -0.44408,0 -0.88816,-0.45116 -0.88816,-0.90056 0,-0.53366 0.44408,-0.88826 0.88816,-0.88826 0.53676,0 0.88818,0.3546 0.88818,0.88826 z m -4.69959,7.37294 c -0.26925,0.7215 -0.53849,0.4494 -0.53849,-0.53366 -0.0823,-0.99358 0.17658,-1.53778 0.44408,-1.1709 0.26924,0.2721 0.3619,1.0761 0.0944,1.70456 z m -5.85875,7.27813 c -0.88816,0.81629 -0.98082,0.7215 -0.44408,-0.53365 0.25876,-0.8988 0.7955,-1.3482 1.06476,-1.0761 0.26749,0.26156 0,0.98306 -0.62068,1.60975 z m -17.58322,31.63515 c -0.26924,0.81452 -0.71333,1.26392 -0.88816,0.99182 -0.26925,-0.27034 -0.17659,-0.81452 0.17483,-1.34818 0.806,-1.443 1.33226,-1.1709 0.71333,0.35636 z m -18.73013,23.99889 c -1.6015,1.6115 -2.12951,1.79934 -3.01767,0.89879 -0.98084,-0.99183 -0.88817,-1.07609 0.25876,-0.6267 0.80599,0.26157 1.9529,-0.0948 2.58232,-0.89879 0.62067,-0.7215 1.32351,-1.34996 1.591,-1.34996 0.3619,0 -0.35142,0.90056 -1.41441,1.97666 z m -7.81166,7.81179 c 0.25875,0.4494 -0.18533,1.34995 -1.0735,1.97664 -1.33224,1.08839 -1.41616,1.08839 -0.44408,-0.1773 0.62941,-0.80575 0.88816,-1.70455 0.53674,-1.97664 -0.26924,-0.35636 -0.35142,-0.62846 0,-0.62846 0.26926,0 0.71334,0.35636 0.98084,0.80576 z m -5.68216,7.64502 c 0,0.1773 -0.71159,0.8988 -1.51758,1.52726 -1.41616,1.17088 -1.50884,1.0761 -0.35142,-0.35636 1.15741,-1.443 1.869,-1.8924 1.869,-1.1709 z"
     fill="#ff9500"
     id="path1"
     style="stroke-width:1.75191" />
  <path
     d="m 488.3068,36.593943 c -3.28516,0.718 -9.4114,2.51558 -13.66866,3.9533 -29.03145,9.97628 -52.82308,37.92496 -59.21857,69.560087 -1.86899,9.07573 -1.95292,26.60048 -0.0926,36.30642 2.57183,13.66099 8.07916,26.78129 15.53764,37.02616 29.39338,40.35098 87.36014,50.05693 129.62665,21.74839 6.39375,-4.31318 19.2669,-17.25442 23.34756,-23.72505 3.90583,-6.02122 4.96882,-8.53855 3.28516,-7.45894 -0.7955,0.4494 -0.97034,0.35811 -0.52625,-0.35987 0.35142,-0.53893 0.97033,-0.80927 1.32175,-0.62846 0.98257,0.62846 3.82365,-5.6631 3.11033,-6.92002 -0.35142,-0.6302 -0.26925,-0.80926 0.0926,-0.35986 2.22042,1.97664 7.4585,-18.60261 8.16134,-31.90373 0.80598,-16.17657 -2.65401,-32.713 -10.11425,-47.899467 -8.52324,-17.25617 -25.83721,-34.15247 -43.32952,-42.3294 -13.04798,-6.11076 -20.59913,-7.7293 -36.83962,-8.0874 -10.7454,-0.27034 -16.25097,0.0896 -20.69355,1.07784 z m 27.0768,49.87613 c 7.82215,1.61853 15.18798,5.84216 20.9628,11.952919 9.76281,10.336148 13.04797,18.872948 12.42906,32.442648 -0.26924,7.36943 -0.71332,9.07749 -3.64707,15.09871 -9.05124,18.60261 -29.82697,28.57888 -49.00119,23.54598 -11.10556,-2.96497 -21.93313,-11.05413 -27.34605,-20.4002 -7.19098,-12.49184 -6.57207,-30.73459 1.59102,-42.95785 3.28516,-5.03291 3.72924,-5.84041 2.04558,-4.85209 -0.62069,0.35988 -0.71334,0.26858 -0.35142,-0.4494 0.35142,-0.53892 0.97033,-0.80926 1.33224,-0.53892 0.44408,0.17906 1.50882,-0.449398 2.397,-1.437718 2.12774,-2.4278 11.0024,-8.628089 14.28756,-9.886759 8.07916,-3.32483 17.22306,-4.22363 25.30047,-2.51732 z"
     fill="#ff9500"
     id="path2"
     style="stroke-width:1.75191" />
</svg>
